<svg xmlns="http://www.w3.org/2000/svg" viewBox="0 0 100 110" width="100" height="110">
  <!-- Shadow -->
  <path d="M17 15 Q17 8 24 8 L68 8 L88 28 L88 106 Q88 113 81 113 L24 113 Q17 113 17 106 Z" fill="#1A0800" opacity="0.35" transform="translate(2,2)"/>
  <!-- Body: very dark chocolate -->
  <path d="M17 15 Q17 8 24 8 L68 8 L88 28 L88 106 Q88 113 81 113 L24 113 Q17 113 17 106 Z" fill="#3C1008"/>
  <!-- Fold back -->
  <path d="M68 8 L88 28 L68 28 Z" fill="#1A0800" opacity="0.6"/>
  <!-- Fold face: slightly lighter dark brown -->
  <path d="M68 8 Q88 8 88 28 L68 28 Z" fill="#6B2818"/>
  <!-- Lines (golden) -->
  <rect x="26" y="40" width="44" height="6" rx="3" fill="#B88A00"/>
  <rect x="26" y="52" width="36" height="6" rx="3" fill="#B88A00"/>
  <!-- Label -->
  <rect x="9" y="68" width="76" height="36" rx="6" fill="white"/>
  <!-- Text -->
  <text x="47" y="95" font-family="'Arial Black', Arial, sans-serif" font-weight="900" font-size="23" fill="#111" text-anchor="middle">.gz</text>
</svg>
